<svg width="320" height="320" xmlns="http://www.w3.org/2000/svg" preserveAspectRatio="xMidYMid meet" version="1.0">

 <g>
  <title>Layer 1</title>
  <path stroke="null" id="svg_3" d="m109.34546,60.71818c-8.3,3.2 -17.6,12.6 -17.6,17.8c0,2.6 2.3,5.1 5.8,6.1c1.2,0.4 2.2,1.2 2.2,1.8c0,1.2 -14.7,29.8 -16,31.1c-0.4,0.5 -1.9,0.1 -3.3,-0.8c-7.4,-4.8 -12.9,2.4 -12.8,16.6c0,6.8 0.5,9.2 2.6,13.6c1.5,2.9 3.8,6.2 5.3,7.4l2.7,2.1l-4.8,9.1c-19.3,36.8 -24.7,48.4 -24.7,53.1c0,10.1 7.3,17.7 17.2,17.8c6.1,0.1 10.4,-1.8 14,-6c1.3,-1.6 8.7,-15.3 16.3,-30.4l13.9,-27.5l10,4.8c12.2,6 16.5,6.3 25.2,1.9c11.7,-6 19,-15.6 15.6,-20.6c-0.4,-0.6 -10.5,-6.2 -22.4,-12.3c-12,-6.2 -21.8,-11.7 -21.8,-12.2c0,-1.3 14.9,-30.9 15.5,-30.9c0.3,0 10.5,5 22.7,11.1c25,12.5 25.7,12.6 29.2,5.4c2.7,-5.7 2.7,-16.5 -0.1,-22.7c-5,-11 -5.6,-11.4 -36.1,-26.8c-19.2,-9.6 -20.8,-10.2 -27.5,-10.6c-4.9,-0.3 -8.5,0.1 -11.1,1.1z"/>
  <path stroke="null" id="svg_4" d="m260.64546,122.31818c-5.5,0.4 -21.5,1.5 -35.5,2.4c-28.6,1.8 -50.9,4.1 -55.7,5.6c-6.7,2.1 -10.8,10.8 -8.3,17c2,4.7 7.3,8.3 11.2,7.5c3.9,-0.7 34.1,-3.6 34.4,-3.3c0.1,0.1 -1.1,5.1 -2.6,11.2c-1.5,6 -8,31.8 -14.4,57.2c-6.4,25.3 -11.6,47.5 -11.6,49.2c0,2 1,4.2 2.8,6.2c2.7,3.1 3.2,3.2 10.4,3.3c13.3,0.1 15.8,-3.4 22.6,-32.4c4.5,-18.8 12.5,-52.4 17.8,-74.4c2.5,-10.3 3.4,-16 3,-18.7c-0.6,-3.5 -0.4,-3.8 2.2,-4.3c1.5,-0.3 10.1,-0.8 19.2,-1.1c18.7,-0.8 22.7,-1.9 28,-8.3c4,-4.8 3.4,-9.1 -1.8,-14.5c-4,-4.1 -3.4,-4.1 -21.7,-2.6z"/>
  <path stroke-width="3" id="svg_28" d="m10,10l300,0" opacity="undefined" stroke="#000000" fill="none"/>
  <line stroke-width="3" id="svg_32" y2="310" x2="307" y1="310" x1="10" stroke="#000000" fill="none"/>
  <line id="svg_34" y2="311" x2="11" y1="9" x1="11" stroke-width="3" stroke="#000000" fill="none"/>
  <line id="svg_35" y2="311.40816" x2="308.55105" y1="9.40816" x1="308.55105" stroke-width="3" stroke="#000000" fill="none"/>
 </g>
</svg>